<svg version="1.2" xmlns="http://www.w3.org/2000/svg" viewBox="0 0 4597 1909" width="520" height="216"><style>.a{fill:#fff}</style><path fill-rule="evenodd" class="a" d="m1513.7 332.4c50.2 131.2 77.8 273.5 77.8 422.3 0 40.7-2.1 80.8-6.1 120.4-70.3 70.2-167.4 134.1-282.9 184.3 100.3-26.5 192.4-63.2 272.4-106.7-20.2 119.7-58.5 233.3-111.8 337.8-58.2 43.5-127 83.1-204 116.5 60.8-16 118.5-35.8 172.4-58.6-67.7 116.2-154.7 219.7-256.5 306.3l-176.6-608c-9-45.5-49.1-79.8-97.3-79.8h-153.5v0.3c-42.9 0-82.4 28.1-94.9 71.4l-178.2 613.5c-253.1-216.5-413.5-538.2-413.5-897.4 0-143 25.4-280.1 72-407-6.2 32.6-6 65.1 1.3 96.9 49.9 216.2 410.5 317.7 805.4 226.5 264.5-61.1 477.3-193.1 574-338.7zm-791.8 1182.7l107-349.9 101.6 349.9zm261.4-1179.1c-62.8-49-182.3-0.9-267 107.6-60.7 77.7-87.1 165.2-74 226.7h-0.1c-235.7-4.6-424.2-88.7-480.1-227-26.6-65.8-21-133.8 14.8-194.6 43.3-73.3 131.3-135.3 241.5-160.7 120.3-27.8 235.8-4.8 306.1 52.2h109.6q2.2-0.1 4.4-0.1c91.5 0 165.7 70.8 165.7 158.1 0 17.4-3 34.1-8.4 49.8-3.8-4.4-7.9-8.4-12.5-12zm21 1439.6c-56.6 32.9-116.1 61.3-178.1 84.6-63.2-23.7-123.8-52.7-181.3-86.5l22.8-78.3h313.3z"/><path fill-rule="evenodd" class="a" d="m3841.7 1349.7v-119.5l-86.2-163.7h34.1l67.4 130.9 67.7-130.9h34.2l-86.2 163.7v119.5zm-217.5 0v-256.2h-82.7v-27h197.6v27h-82.7v256.2zm-163.2 0v-283.2h31.8v283.2zm-246.2-70.9l29.7-9.8c5.2 18.1 13.9 32.4 26.3 42.8 12.3 10.4 26.6 15.6 42.8 15.6 18 0 32.4-4.5 43.1-13.5 10.7-9 16.1-21 16.1-35.8 0-8.9-1.6-16.5-4.8-23-3.2-6.5-8-12-14.4-16.3-9.1-6.2-25.1-13.2-47.7-21.4-8-2.9-14.1-5.2-18.1-6.7-23.9-9.3-40.8-19.6-50.5-30.8-9.8-11.3-14.7-25.4-14.7-42.5q0-34.3 22.7-54.9 22.7-20.7 60.4-20.7c21.9 0 40.6 5.9 55.8 17.8 15.3 11.9 26.2 29.1 32.8 51.5l-28.2 8.3q-6.9-25.1-23.2-38.2-16.3-13.1-40.4-13.1-22.7-0.1-36.2 12.5-13.5 12.5-13.5 33.7 0 10 4.5 18.5c3 5.6 7.6 11 14.1 16 6.2 4.9 20.7 11.5 43.4 19.7 7.2 2.6 12.9 4.6 16.8 6.1q40.4 15.3 55.9 33.5c10.3 12.1 15.5 28.1 15.5 48q-0.1 35.4-24.1 56.9c-16 14.3-37.2 21.4-63.8 21.4-25.4 0-46.6-6.3-63.4-19.1-16.8-12.7-29.1-31.5-36.9-56.5zm-231.6 70.9v-283.2h79.6q59.4 0 86.3 17.9 26.9 17.9 26.9 56.9c0 18.5-4.9 33.8-14.6 45.9-9.7 12.1-24.4 21-44.1 26.6l66.6 135.9h-34.4l-62.4-128.5h-73v128.5zm79.6-256.9h-48.6v102.2h47.4c29.3 0 50.4-4 63.4-12.1q19.4-12 19.4-38.8c0-19-5.8-32.4-17.4-40q-17.3-11.4-64.2-11.3zm-303.3 256.9v-283.2h167.4v26.6h-136.1v94.8h96.5v26.3h-96.5v108.5h136.1v27zm-167.9 0l-95.5-283.2h32.1l76.4 229.5h2.3l77-229.5h31.7l-96.4 283.2zm-173.2 0v-283.2h31.7v283.2zm-282.2 0v-283.2h44.7l130.2 220.9v-220.9h29.4v283.2h-24.3l-150.6-250.7v250.7zm-279.5-283.2h31v182.7c0 12.7 0.6 22.3 1.7 28.8 1.1 6.4 3.1 12.2 5.8 17.3 5.2 10.2 13.4 18.1 24.5 23.7q16.6 8.4 39 8.4 22.7 0 39.4-8.4c11.1-5.6 19.3-13.5 24.5-23.7 2.7-5.3 4.6-11.4 5.7-18.1q1.7-10.1 1.7-33.2v-177.5h31v187.7c0 32.7-8.7 57.6-26.2 74.7-17.3 17-42.8 25.5-76.2 25.5-33.6 0-58.9-8.4-76.1-25.3q-25.8-25.3-25.8-74.9z"/><path fill-rule="evenodd" class="a" d="m4254.2 866.8l-156.2-534.4h98.6l119.2 436.1 118-436.1h98.9l-155.8 534.4zm-614-266.1c0-86.3 19.2-153.7 57.5-202.2 38.4-48.4 91.5-72.7 159.4-72.7 67.8 0 120.9 24.3 159.4 72.7 38.4 48.5 57.7 115.9 57.7 202.2 0 85.9-19.3 153.2-57.8 201.9-38.7 48.7-91.8 73.1-159.3 73.1-67.4 0-120.4-24.4-159.1-73.1-38.5-48.7-57.8-116-57.8-201.9zm99.9 0.2c0 60.5 9.9 106.3 29.8 137.5 19.9 31.3 49 46.8 87.3 46.8 38.3 0 67.4-15.5 87.3-46.8 19.9-31.2 29.8-77 29.8-137.5 0-60.9-9.9-107.2-29.8-138.8-19.9-31.5-49-47.3-87.3-47.3-38.3 0-67.4 15.8-87.3 47.3-19.9 31.6-29.8 77.9-29.8 138.8zm-508.7 265.9v-88.2l253.1-359.4h-235.8v-86.8h344.9v84.1l-256.5 362.1h260.1v88.2zm-407.1 0v-534.4h339.2v86.8h-241.5v126.4h176.1v85.3h-176.1v144.8h241.5v91.1zm-490.3-196.4v-338h98.4v342.3c0 39.7 7.8 68.5 23.5 86.2 15.7 17.7 41 26.5 75.7 26.5 37 0 63.4-8.5 79-25.6q23.8-25.7 23.8-87.1v-342.3h95.5v354.2q0 91.2-51.3 140c-34.4 32.8-83.3 49.1-147 49.1-66.5 0-116-16.9-148.6-50.8-32.7-33.9-49-85.4-49-154.5zm-477.3 196.4l157.7-534.4h122.7l157.3 534.4h-98.2l-32.4-116.8h-180.3l-33.5 116.8zm150.2-202.1h133.1l-66.7-239z"/><path fill-rule="evenodd" class="a" d="m2275.8 1661.4l15.3-10.2q8 14.2 19.9 21.5 11.8 7.3 26.8 7.3 18.6 0 29-9 10.5-9.1 10.5-25.3-0.1-17.9-13-27.2c-8.7-6.2-21.4-9.3-38.4-9.3q-3.6 0-6.7 0.1-3.2 0.1-6.6 0.4v-16.3q0.9 0 2.8 0.1 7.7 0.4 10.3 0.3c15.1 0 26.7-2.7 34.6-8.3 7.9-5.6 11.8-13.7 11.8-24.3 0-8.3-2.9-14.9-8.8-19.6q-8.8-7.2-24-7.3-12.5 0-22.3 5.7c-6.5 3.7-12.7 9.7-18.7 18l-13.9-10.2q11-14.5 24.7-21.5 13.8-7 30.9-7.1 23.2 0.1 37 11.3 13.7 11.2 13.8 30c0 9.5-2.3 17.6-6.9 24.4-4.6 6.7-11.4 11.9-20.3 15.5 10.8 4 19 9.7 24.5 17.1q8.3 11.1 8.3 26.6 0 23.4-15.7 37.3-15.6 14-42.2 14c-13.9 0-26.2-2.9-36.8-8.6q-15.9-8.6-25.9-25.4zm-48.8-139.3v115.4h29.2v14.7h-29.2v43.2h-17.4v-43.2h-79.7v-12.2l71.8-117.9zm-17.4 115.4v-99.8l-60.3 99.8zm-123-29.4c-6.5 7.3-13.5 12.8-21.1 16.4-7.7 3.7-15.9 5.5-24.6 5.5-16.5 0-29.7-5.1-39.5-15.3-9.9-10.1-14.8-23.8-14.8-40.9q0-23.9 16.2-39.1c10.8-10.1 24.7-15.2 41.9-15.2q30.5 0 46.1 20 15.6 20.1 15.6 59.3 0 44.6-19.4 70.6-19.4 26-52.4 26c-8.1 0-15.4-0.9-22-2.6-6.5-1.7-12.3-4.2-17.2-7.5l7.9-14.7q6.8 4.5 14.7 6.7c5.2 1.5 11 2.3 17.1 2.3 15.7 0 28.3-6.5 37.6-19.3q13.9-19.3 13.9-52.2zm0.2-25.5q-0.8-22.3-12.2-35.1-11.3-12.9-30.1-12.9c-11.2 0-20.5 3.7-27.9 11.3q-11.2 11.3-11.2 28.4 0 18.6 10.4 29.5 10.3 11.1 27.7 11.1c9.2 0 17.5-2.8 24.8-8.3q11.1-8.2 18.5-24zm-178.7-63.4v158h29.2v15.3h-76.5v-15.3h29.9v-137.9l-32.8 3.6v-11.9q10.4-2.6 19.5-5.6 9-3 16.5-6.2z"/></svg>