<svg id="visual" viewBox="0 0 960 540" width="960" height="540" xmlns="http://www.w3.org/2000/svg" xmlns:xlink="http://www.w3.org/1999/xlink" version="1.1"><path d="M0 216L10 209C20 202 40 188 60 172.3C80 156.7 100 139.3 120 145.7C140 152 160 182 180 199.8C200 217.7 220 223.3 240 228.5C260 233.7 280 238.3 300 223.7C320 209 340 175 360 164.8C380 154.7 400 168.3 420 164.7C440 161 460 140 480 141.3C500 142.7 520 166.3 540 182.2C560 198 580 206 600 209.5C620 213 640 212 660 220.2C680 228.3 700 245.7 720 240.7C740 235.7 760 208.3 780 208C800 207.7 820 234.3 840 229.8C860 225.3 880 189.7 900 182.5C920 175.3 940 196.7 950 207.3L960 218L960 0L950 0C940 0 920 0 900 0C880 0 860 0 840 0C820 0 800 0 780 0C760 0 740 0 720 0C700 0 680 0 660 0C640 0 620 0 600 0C580 0 560 0 540 0C520 0 500 0 480 0C460 0 440 0 420 0C400 0 380 0 360 0C340 0 320 0 300 0C280 0 260 0 240 0C220 0 200 0 180 0C160 0 140 0 120 0C100 0 80 0 60 0C40 0 20 0 10 0L0 0Z" fill="#a34caa"></path><path d="M0 200L10 181.7C20 163.3 40 126.7 60 114.8C80 103 100 116 120 132.8C140 149.7 160 170.3 180 176.3C200 182.3 220 173.7 240 173C260 172.3 280 179.7 300 169.2C320 158.7 340 130.3 360 120.7C380 111 400 120 420 126.8C440 133.7 460 138.3 480 143.5C500 148.7 520 154.3 540 160.5C560 166.7 580 173.3 600 163.2C620 153 640 126 660 117.8C680 109.7 700 120.3 720 119.3C740 118.3 760 105.7 780 97.2C800 88.7 820 84.3 840 93.7C860 103 880 126 900 146.2C920 166.3 940 183.7 950 192.3L960 201L960 0L950 0C940 0 920 0 900 0C880 0 860 0 840 0C820 0 800 0 780 0C760 0 740 0 720 0C700 0 680 0 660 0C640 0 620 0 600 0C580 0 560 0 540 0C520 0 500 0 480 0C460 0 440 0 420 0C400 0 380 0 360 0C340 0 320 0 300 0C280 0 260 0 240 0C220 0 200 0 180 0C160 0 140 0 120 0C100 0 80 0 60 0C40 0 20 0 10 0L0 0Z" fill="#893ba0"></path><path d="M0 124L10 125.8C20 127.7 40 131.3 60 129C80 126.7 100 118.3 120 110.8C140 103.3 160 96.7 180 103.2C200 109.7 220 129.3 240 130.7C260 132 280 115 300 101C320 87 340 76 360 67.2C380 58.3 400 51.7 420 67.2C440 82.7 460 120.3 480 123.3C500 126.3 520 94.7 540 76C560 57.3 580 51.7 600 56.3C620 61 640 76 660 89.7C680 103.3 700 115.7 720 124.2C740 132.7 760 137.3 780 128.5C800 119.7 820 97.3 840 81.5C860 65.7 880 56.3 900 59.3C920 62.3 940 77.7 950 85.3L960 93L960 0L950 0C940 0 920 0 900 0C880 0 860 0 840 0C820 0 800 0 780 0C760 0 740 0 720 0C700 0 680 0 660 0C640 0 620 0 600 0C580 0 560 0 540 0C520 0 500 0 480 0C460 0 440 0 420 0C400 0 380 0 360 0C340 0 320 0 300 0C280 0 260 0 240 0C220 0 200 0 180 0C160 0 140 0 120 0C100 0 80 0 60 0C40 0 20 0 10 0L0 0Z" fill="#6d2c96"></path><path d="M0 48L10 40C20 32 40 16 60 18.5C80 21 100 42 120 48.8C140 55.7 160 48.3 180 46C200 43.7 220 46.3 240 56C260 65.7 280 82.3 300 83.3C320 84.3 340 69.7 360 53.8C380 38 400 21 420 16.8C440 12.7 460 21.3 480 31C500 40.7 520 51.3 540 59C560 66.7 580 71.3 600 62.8C620 54.3 640 32.7 660 24.7C680 16.7 700 22.3 720 23.2C740 24 760 20 780 22.2C800 24.3 820 32.7 840 44.3C860 56 880 71 900 73.8C920 76.7 940 67.3 950 62.7L960 58L960 0L950 0C940 0 920 0 900 0C880 0 860 0 840 0C820 0 800 0 780 0C760 0 740 0 720 0C700 0 680 0 660 0C640 0 620 0 600 0C580 0 560 0 540 0C520 0 500 0 480 0C460 0 440 0 420 0C400 0 380 0 360 0C340 0 320 0 300 0C280 0 260 0 240 0C220 0 200 0 180 0C160 0 140 0 120 0C100 0 80 0 60 0C40 0 20 0 10 0L0 0Z" fill="#4e1e8c"></path></svg>