<svg id="visual" viewBox="0 0 540 960" width="540" height="960" xmlns="http://www.w3.org/2000/svg" xmlns:xlink="http://www.w3.org/1999/xlink" version="1.1"><path d="M0 367L12.8 378.7C25.7 390.3 51.3 413.7 77 406.2C102.7 398.7 128.3 360.3 154 334C179.7 307.7 205.3 293.3 231.2 299.2C257 305 283 331 308.8 327.5C334.7 324 360.3 291 386 290.5C411.7 290 437.3 322 463 336.8C488.7 351.7 514.3 349.3 527.2 348.2L540 347L540 0L527.2 0C514.3 0 488.7 0 463 0C437.3 0 411.7 0 386 0C360.3 0 334.7 0 308.8 0C283 0 257 0 231.2 0C205.3 0 179.7 0 154 0C128.3 0 102.7 0 77 0C51.3 0 25.7 0 12.8 0L0 0Z" fill="#a34caa"></path><path d="M0 218L12.8 220.8C25.7 223.7 51.3 229.3 77 239.5C102.7 249.7 128.3 264.3 154 285.7C179.7 307 205.3 335 231.2 348.2C257 361.3 283 359.7 308.8 348.3C334.7 337 360.3 316 386 293C411.7 270 437.3 245 463 245.2C488.7 245.3 514.3 270.7 527.2 283.3L540 296L540 0L527.2 0C514.3 0 488.7 0 463 0C437.3 0 411.7 0 386 0C360.3 0 334.7 0 308.8 0C283 0 257 0 231.2 0C205.3 0 179.7 0 154 0C128.3 0 102.7 0 77 0C51.3 0 25.7 0 12.8 0L0 0Z" fill="#9342a4"></path><path d="M0 227L12.8 226C25.7 225 51.3 223 77 234.7C102.7 246.3 128.3 271.7 154 283.2C179.7 294.7 205.3 292.3 231.2 270.2C257 248 283 206 308.8 204.2C334.7 202.3 360.3 240.7 386 252.2C411.7 263.7 437.3 248.3 463 231.5C488.7 214.7 514.3 196.3 527.2 187.2L540 178L540 0L527.2 0C514.3 0 488.7 0 463 0C437.3 0 411.7 0 386 0C360.3 0 334.7 0 308.8 0C283 0 257 0 231.2 0C205.3 0 179.7 0 154 0C128.3 0 102.7 0 77 0C51.3 0 25.7 0 12.8 0L0 0Z" fill="#83389e"></path><path d="M0 173L12.8 166.3C25.7 159.7 51.3 146.3 77 143.5C102.7 140.7 128.3 148.3 154 150.3C179.7 152.3 205.3 148.7 231.2 145.7C257 142.7 283 140.3 308.8 149.8C334.7 159.3 360.3 180.7 386 190.7C411.7 200.7 437.3 199.3 463 197.3C488.7 195.3 514.3 192.7 527.2 191.3L540 190L540 0L527.2 0C514.3 0 488.7 0 463 0C437.3 0 411.7 0 386 0C360.3 0 334.7 0 308.8 0C283 0 257 0 231.2 0C205.3 0 179.7 0 154 0C128.3 0 102.7 0 77 0C51.3 0 25.7 0 12.8 0L0 0Z" fill="#732f98"></path><path d="M0 140L12.8 146.3C25.7 152.7 51.3 165.3 77 162.3C102.7 159.3 128.3 140.7 154 133.8C179.7 127 205.3 132 231.2 126.8C257 121.7 283 106.3 308.8 95C334.7 83.7 360.3 76.3 386 90.3C411.7 104.3 437.3 139.7 463 146.3C488.7 153 514.3 131 527.2 120L540 109L540 0L527.2 0C514.3 0 488.7 0 463 0C437.3 0 411.7 0 386 0C360.3 0 334.7 0 308.8 0C283 0 257 0 231.2 0C205.3 0 179.7 0 154 0C128.3 0 102.7 0 77 0C51.3 0 25.7 0 12.8 0L0 0Z" fill="#612692"></path><path d="M0 87L12.8 81.5C25.7 76 51.3 65 77 67C102.7 69 128.3 84 154 88.5C179.7 93 205.3 87 231.2 88.2C257 89.3 283 97.7 308.8 100C334.7 102.3 360.3 98.7 386 93.8C411.7 89 437.3 83 463 79C488.7 75 514.3 73 527.2 72L540 71L540 0L527.2 0C514.3 0 488.7 0 463 0C437.3 0 411.7 0 386 0C360.3 0 334.7 0 308.8 0C283 0 257 0 231.2 0C205.3 0 179.7 0 154 0C128.3 0 102.7 0 77 0C51.3 0 25.7 0 12.8 0L0 0Z" fill="#4e1e8c"></path></svg>